<svg width="92" height="35" viewBox="0 0 92 35" fill="none" xmlns="http://www.w3.org/2000/svg">
    <g filter="url(#filter0_d_31_377)">
        <g filter="url(#filter1_d_31_377)">
            <path d="M17.7215 6.25192V9.47596H13.334V22.7722H9.3003V9.47596H4.91278V6.25192H17.7215Z" fill="#429499"/>
            <path d="M23.7797 11.8293C24.2514 11.1076 24.8411 10.5428 25.5488 10.1349C26.2564 9.7113 27.0427 9.49951 27.9077 9.49951V13.759H26.7991C25.7925 13.759 25.0378 13.9787 24.5344 14.4179C24.0313 14.8415 23.7797 15.5946 23.7797 16.6771V22.7722H19.746V9.64071H23.7797V11.8293Z"
                  fill="#429499"/>
            <path d="M31.8642 8.27578C31.1565 8.27578 30.5745 8.07182 30.1184 7.66391C29.6783 7.24031 29.458 6.72258 29.458 6.11072C29.458 5.48317 29.6783 4.96544 30.1184 4.55753C30.5745 4.13393 31.1565 3.92212 31.8642 3.92212C32.5561 3.92212 33.1223 4.13393 33.5624 4.55753C34.0185 4.96544 34.2467 5.48317 34.2467 6.11072C34.2467 6.72258 34.0185 7.24031 33.5624 7.66391C33.1223 8.07182 32.5561 8.27578 31.8642 8.27578ZM33.8691 9.6407V22.7722H29.8356V9.6407H33.8691Z"
                  fill="#429499"/>
            <path d="M40.8263 11.4998C41.2196 10.8879 41.762 10.3938 42.4539 10.0172C43.1459 9.64069 43.9558 9.45242 44.8836 9.45242C45.9687 9.45242 46.9516 9.72697 47.8323 10.2761C48.7128 10.8252 49.4049 11.6096 49.9081 12.6294C50.4269 13.6492 50.6865 14.8337 50.6865 16.1829C50.6865 17.5322 50.4269 18.7245 49.9081 19.76C49.4049 20.7797 48.7128 21.572 47.8323 22.1368C46.9516 22.6859 45.9687 22.9605 44.8836 22.9605C43.9715 22.9605 43.1616 22.7722 42.4539 22.3957C41.762 22.0192 41.2196 21.5328 40.8263 20.9366V29.032H36.7925V9.64069H40.8263V11.4998ZM46.5821 16.1829C46.5821 15.1788 46.299 14.3944 45.7327 13.8296C45.1825 13.2491 44.4982 12.9589 43.6805 12.9589C42.8785 12.9589 42.1945 13.2491 41.6283 13.8296C41.078 14.4101 40.8028 15.2024 40.8028 16.2064C40.8028 17.2105 41.078 18.0028 41.6283 18.5833C42.1945 19.1638 42.8785 19.454 43.6805 19.454C44.4825 19.454 45.1668 19.1638 45.7327 18.5833C46.299 17.9871 46.5821 17.187 46.5821 16.1829Z"
                  fill="#429499"/>
            <path d="M54.8311 8.27578C54.1235 8.27578 53.5416 8.07182 53.0855 7.66391C52.6454 7.24031 52.4251 6.72258 52.4251 6.11072C52.4251 5.48317 52.6454 4.96544 53.0855 4.55753C53.5416 4.13393 54.1235 3.92212 54.8311 3.92212C55.5232 3.92212 56.0892 4.13393 56.5295 4.55753C56.9856 4.96544 57.2138 5.48317 57.2138 6.11072C57.2138 6.72258 56.9856 7.24031 56.5295 7.66391C56.0892 8.07182 55.5232 8.27578 54.8311 8.27578ZM56.8362 9.6407V22.7722H52.8027V9.6407H56.8362Z"
                  fill="#429499"/>
            <path d="M58.9573 16.2064C58.9573 14.8415 59.2326 13.6492 59.7829 12.6294C60.3491 11.6096 61.1276 10.8252 62.1182 10.2761C63.1248 9.72697 64.2727 9.45242 65.5622 9.45242C67.2135 9.45242 68.5894 9.88385 69.6902 10.7467C70.8069 11.6096 71.538 12.8255 71.8839 14.3944H67.5909C67.2292 13.3903 66.5293 12.8883 65.4915 12.8883C64.7524 12.8883 64.1626 13.1785 63.7222 13.759C63.2821 14.3238 63.0618 15.1396 63.0618 16.2064C63.0618 17.2733 63.2821 18.097 63.7222 18.6774C64.1626 19.2422 64.7524 19.5246 65.4915 19.5246C66.5293 19.5246 67.2292 19.0226 67.5909 18.0185H71.8839C71.538 19.556 70.8069 20.7641 69.6902 21.6426C68.5737 22.5212 67.1978 22.9605 65.5622 22.9605C64.2727 22.9605 63.1248 22.6859 62.1182 22.1368C61.1276 21.5877 60.3491 20.8033 59.7829 19.7835C59.2326 18.7637 58.9573 17.5714 58.9573 16.2064Z"
                  fill="#429499"/>
            <path d="M80.033 22.9605C78.7435 22.9605 77.5799 22.6859 76.5419 22.1368C75.5196 21.5877 74.7097 20.8033 74.1123 19.7835C73.5304 18.7637 73.2394 17.5714 73.2394 16.2064C73.2394 14.8572 73.5383 13.6727 74.1359 12.6529C74.7335 11.6175 75.5512 10.8252 76.589 10.2761C77.627 9.72697 78.7906 9.45242 80.0803 9.45242C81.3698 9.45242 82.5334 9.72697 83.5714 10.2761C84.6092 10.8252 85.4271 11.6175 86.0245 12.6529C86.6221 13.6727 86.9209 14.8572 86.9209 16.2064C86.9209 17.5557 86.6143 18.748 86.0009 19.7835C85.4033 20.8033 84.5778 21.5877 83.5241 22.1368C82.4863 22.6859 81.3224 22.9605 80.033 22.9605ZM80.033 19.4776C80.8035 19.4776 81.4561 19.1952 81.991 18.6304C82.5412 18.0656 82.8165 17.2576 82.8165 16.2064C82.8165 15.1553 82.5491 14.3473 82.0145 13.7825C81.4956 13.2177 80.8507 12.9353 80.0803 12.9353C79.294 12.9353 78.6412 13.2177 78.1223 13.7825C77.6034 14.3316 77.3439 15.1396 77.3439 16.2064C77.3439 17.2576 77.5956 18.0656 78.0988 18.6304C78.6176 19.1952 79.2624 19.4776 80.033 19.4776Z"
                  fill="#429499"/>
        </g>
        <path fill-rule="evenodd" clip-rule="evenodd"
              d="M19.7459 9.64073V22.7723H23.7796V16.6771C23.7796 16.3357 23.8046 16.027 23.8547 15.7511C23.9634 15.1523 24.19 14.7079 24.5346 14.418C24.8756 14.1203 25.3321 13.9234 25.9042 13.8275C26.1614 13.7844 26.442 13.7616 26.7457 13.7592C26.7634 13.7591 26.7811 13.759 26.799 13.759H27.9076V9.49953C27.8409 9.49953 27.7744 9.50077 27.7087 9.50332C27.3726 9.51619 27.0485 9.56201 26.7369 9.64073C26.7136 9.64662 26.6903 9.65272 26.667 9.65898C26.467 9.71295 26.2722 9.7806 26.0824 9.86196C26.0225 9.88766 25.9631 9.91473 25.9042 9.94314C25.7835 10.0013 25.665 10.0653 25.5488 10.1349C24.9362 10.488 24.412 10.9587 23.9762 11.5469C23.9085 11.6382 23.843 11.7323 23.7796 11.8293V9.64073H19.7459ZM29.467 5.89795C29.4611 5.96741 29.4581 6.03834 29.4581 6.11074C29.4581 6.57326 29.584 6.982 29.8357 7.33694C29.9169 7.45154 30.0114 7.56053 30.1188 7.66394C30.5261 8.02823 31.0337 8.22986 31.6416 8.2688C31.7145 8.27345 31.7886 8.2758 31.8644 8.2758C32.4129 8.2758 32.8825 8.14757 33.2728 7.89114C33.3749 7.82415 33.4716 7.74842 33.5626 7.66394C33.6801 7.55497 33.7821 7.43979 33.8692 7.31837C34.0007 7.13544 34.0976 6.93838 34.1604 6.72718C34.2181 6.53358 34.2468 6.32809 34.2468 6.11074C34.2468 5.98029 34.237 5.85461 34.2171 5.73365C34.1421 5.2727 33.9239 4.88068 33.5626 4.55755C33.1224 4.13395 32.5562 3.92214 31.8644 3.92214C31.1566 3.92214 30.5747 4.13395 30.1188 4.55755C29.77 4.88068 29.5592 5.27275 29.4869 5.73375C29.4783 5.78754 29.4716 5.84227 29.467 5.89795ZM27.4418 1.68514C27.441 1.68573 27.4403 1.68631 27.4398 1.6869C26.2129 2.82525 25.5807 4.3208 25.5301 5.90341C25.43 5.9319 25.3304 5.96227 25.2313 5.99456C24.7821 5.81642 24.2923 5.71852 23.7796 5.71852H21.6169C21.3561 3.80466 19.7114 2.32973 17.7215 2.32973H4.91279C2.74149 2.32973 0.981323 4.08576 0.981323 6.25194V9.47598C0.981323 11.6422 2.74149 13.3982 4.91279 13.3982H5.36884V22.7723C5.36884 24.9385 7.12901 26.6944 9.30031 26.6944H13.334C14.657 26.6944 15.8274 26.0424 16.5399 25.0431C17.2525 26.0424 18.4229 26.6944 19.7459 26.6944H23.7796C24.9977 26.6944 26.0865 26.1418 26.8076 25.2741C27.5288 26.1418 28.6174 26.6944 29.8357 26.6944H32.8612V29.0321C32.8612 31.1982 34.6212 32.9543 36.7926 32.9543H40.8262C42.9976 32.9543 44.7576 31.1982 44.7576 29.0321V26.8819C44.7996 26.8824 44.8415 26.8826 44.8835 26.8826C46.6707 26.8826 48.3814 26.4196 49.9158 25.4628C49.9212 25.4594 49.9268 25.456 49.9322 25.4525C50.6495 26.2169 51.6701 26.6944 52.8026 26.6944H56.8361C58.026 26.6944 59.0922 26.1672 59.8132 25.3343C59.9428 25.4139 60.0748 25.491 60.209 25.5656L60.2318 25.5781C61.8856 26.4803 63.6966 26.8826 65.5621 26.8826C67.9421 26.8826 70.2129 26.2267 72.1251 24.7222C72.3306 24.5604 72.5279 24.3922 72.7165 24.2182C73.3061 24.7457 73.9611 25.2051 74.6782 25.5903L74.7001 25.6021C76.3593 26.4798 78.1654 26.8826 80.0331 26.8826C81.8969 26.8826 83.6994 26.4815 85.3556 25.6077C87.0543 24.72 88.4213 23.4222 89.3911 21.7699C90.4009 20.0613 90.8526 18.1667 90.8526 16.2065C90.8526 14.2667 90.4181 12.384 89.4257 10.6854C88.4669 9.02845 87.1147 7.711 85.4135 6.81099C83.7541 5.9332 81.9482 5.53026 80.0805 5.53026C78.2128 5.53026 76.4066 5.9332 74.7474 6.81099C74.0158 7.19802 73.3488 7.6622 72.7499 8.1974C72.5463 8.00914 72.3326 7.82795 72.1084 7.65427C70.1982 6.16114 67.9254 5.53026 65.5621 5.53026C64.032 5.53026 62.5386 5.80093 61.1385 6.39608C61.1429 6.30151 61.1452 6.20639 61.1452 6.11074C61.1452 4.42602 60.4852 2.85464 59.2068 1.68498C57.9445 0.497678 56.3751 -6.10352e-05 54.831 -6.10352e-05C53.2761 -6.10352e-05 51.6932 0.493835 50.4104 1.68338C50.4099 1.68396 50.4091 1.68455 50.4084 1.68514C49.127 2.87327 48.4936 4.45096 48.4936 6.11074C48.4936 6.14836 48.4941 6.18593 48.4945 6.2234C47.3515 5.75783 46.1362 5.53026 44.8835 5.53026C43.9507 5.53026 43.0138 5.65183 42.1048 5.9306C41.704 5.79315 41.2739 5.71852 40.8262 5.71852H38.1663C38.0716 4.18322 37.4187 2.76342 36.2401 1.68505C34.9777 0.497698 33.4083 -6.10352e-05 31.8644 -6.10352e-05C30.3085 -6.10352e-05 28.7248 0.494325 27.4418 1.68514ZM36.7926 9.64073V29.0321H40.8262V20.9367C41.2194 21.5328 41.7619 22.0192 42.4539 22.3957C42.8332 22.5976 43.2422 22.7454 43.6804 22.8391C44.0216 22.912 44.3808 22.9521 44.7576 22.9593C44.7993 22.9601 44.8413 22.9605 44.8835 22.9605C45.5339 22.9605 46.1474 22.8619 46.7242 22.6647C47.1099 22.5328 47.4791 22.3569 47.8321 22.1369C48.2139 21.892 48.5603 21.6044 48.8711 21.274C49.2772 20.8423 49.6228 20.3377 49.9079 19.76C50.4268 18.7245 50.6864 17.5322 50.6864 16.183C50.6864 14.8337 50.4268 13.6492 49.9079 12.6294C49.6228 12.0518 49.2772 11.5496 48.8711 11.123C48.5603 10.7965 48.2139 10.5142 47.8321 10.2761C47.4904 10.0631 47.1337 9.89148 46.7613 9.7611C46.1737 9.55533 45.5476 9.45246 44.8835 9.45246C44.8398 9.45246 44.7964 9.45288 44.7532 9.45371C44.3756 9.461 44.0179 9.50024 43.6804 9.57144C43.5835 9.5919 43.488 9.61498 43.3943 9.64073C43.0597 9.73261 42.7464 9.85812 42.4539 10.0173C41.7619 10.3938 41.2194 10.888 40.8262 11.4998V9.64073H36.7926ZM40.8657 15.4222C40.8237 15.6674 40.8026 15.9289 40.8026 16.2065C40.8026 16.493 40.8249 16.7623 40.8698 17.0144C40.9822 17.6455 41.2349 18.1685 41.6281 18.5833C42.0661 19.0323 42.5744 19.3076 43.1531 19.4093C43.3229 19.4392 43.4986 19.4541 43.6804 19.4541C43.802 19.4541 43.921 19.4474 44.0371 19.434C44.0501 19.4326 44.0628 19.431 44.0756 19.4294C44.3614 19.3927 44.6308 19.3152 44.8835 19.1969C44.9968 19.1439 45.1067 19.0826 45.2135 19.0132C45.3962 18.8941 45.5694 18.7508 45.7326 18.5833C46.2988 17.9872 46.5819 17.187 46.5819 16.183C46.5819 15.1789 46.2988 14.3944 45.7326 13.8296C45.5748 13.6632 45.406 13.5207 45.2265 13.402C45.1163 13.3292 45.002 13.2654 44.8835 13.2106C44.6325 13.0944 44.3631 13.0184 44.0751 12.9827C43.9473 12.9668 43.8158 12.9589 43.6804 12.9589C43.5054 12.9589 43.3362 12.9727 43.1725 13.0003C42.5857 13.0993 42.071 13.3758 41.6281 13.8296C41.23 14.2496 40.9758 14.7805 40.8657 15.4222ZM43.421 15.5699C43.3698 15.5838 43.3143 15.6024 43.2564 15.627C43.0754 15.7038 42.962 15.7998 42.9149 15.8482L43.6804 16.5913L44.0768 16.2065L43.421 15.5699ZM44.1114 16.24L43.7093 16.6193L43.9397 16.843C43.9912 16.8291 44.0466 16.8105 44.1045 16.7859C44.2854 16.7092 44.3987 16.6132 44.4461 16.5648L44.1114 16.24ZM43.9017 16.8527L43.6821 16.6452L43.4635 16.8513C43.5621 16.8756 43.6387 16.8811 43.6804 16.8811C43.7319 16.8811 43.8089 16.8746 43.9017 16.8527ZM43.4235 16.8407L43.6531 16.6178L42.8786 15.8859C42.8291 15.938 42.7827 15.9983 42.7429 16.0634C42.7165 16.107 42.6963 16.1476 42.6809 16.183C42.6799 16.1853 42.6789 16.1877 42.6779 16.1901C42.6801 16.1955 42.6823 16.2009 42.6846 16.2065C42.7241 16.3027 42.7881 16.415 42.8789 16.5228C42.8887 16.5342 42.8985 16.5456 42.9088 16.5569C42.923 16.5703 42.939 16.5845 42.9566 16.5991C43.0305 16.6599 43.1345 16.7292 43.2682 16.7859C43.3234 16.8094 43.3757 16.8272 43.4235 16.8407ZM44.1467 16.2065L44.4843 15.888C44.543 15.9498 44.595 16.0186 44.6381 16.0903C44.658 16.1234 44.6745 16.1545 44.6879 16.183C44.6919 16.191 44.6956 16.1989 44.6987 16.2065C44.6835 16.2409 44.6637 16.2803 44.6381 16.3227C44.595 16.3944 44.543 16.4632 44.4843 16.525L44.1467 16.2065ZM44.1114 16.173L43.4615 15.5597C43.5533 15.5382 43.6293 15.5319 43.6804 15.5319C43.7314 15.5319 43.8077 15.5382 43.8994 15.5597C43.9242 15.5656 43.9505 15.5725 43.9775 15.5808C44.0179 15.5931 44.0604 15.6083 44.1045 15.627C44.2854 15.7038 44.3987 15.7998 44.4461 15.8482L44.1114 16.173ZM52.8026 22.7723H56.8361V9.64073H52.8026V22.7723ZM52.4535 5.73375C52.4346 5.85466 52.425 5.98034 52.425 6.11074C52.425 6.57326 52.5509 6.982 52.8026 7.33694C52.8838 7.45154 52.978 7.56055 53.0855 7.66394C53.5415 8.07184 54.1235 8.2758 54.831 8.2758C55.5231 8.2758 56.0891 8.07184 56.5295 7.66394C56.6467 7.55497 56.749 7.43979 56.8361 7.31837C57.0878 6.96775 57.2137 6.5652 57.2137 6.11074C57.2137 5.98029 57.2036 5.85461 57.184 5.73365C57.1089 5.2727 56.8908 4.88068 56.5295 4.55755C56.0891 4.13395 55.5231 3.92214 54.831 3.92214C54.1235 3.92214 53.5415 4.13395 53.0855 4.55755C52.7368 4.88068 52.5261 5.27275 52.4535 5.73375ZM60.1427 12.0534C60.0147 12.2363 59.8947 12.4283 59.7828 12.6294C59.2325 13.6492 58.9573 14.8416 58.9573 16.2065C58.9573 17.5714 59.2325 18.7638 59.7828 19.7835C59.8783 19.9554 59.9798 20.1205 60.0873 20.279C60.2605 20.5347 60.4496 20.7729 60.6542 20.9937C60.6658 21.0062 60.6775 21.0187 60.6891 21.031C60.7151 21.0585 60.7413 21.0857 60.7676 21.1127C61.1626 21.5153 61.6128 21.8567 62.1181 22.1369C63.1064 22.6759 64.2307 22.9504 65.4915 22.9603C65.515 22.9604 65.5386 22.9605 65.5621 22.9605C67.0008 22.9605 68.2387 22.6206 69.276 21.9408C69.4178 21.8477 69.5559 21.7484 69.6901 21.6427C69.9247 21.4583 70.142 21.2594 70.3422 21.046C70.4229 20.9601 70.5009 20.8719 70.576 20.7813C71.1454 20.0948 71.5571 19.2732 71.811 18.3166C71.837 18.2187 71.8613 18.1193 71.8839 18.0185H67.5908C67.5533 18.1227 67.5123 18.2214 67.4674 18.3147C67.4485 18.3539 67.4291 18.3921 67.409 18.4294C67.3739 18.4946 67.3369 18.557 67.2976 18.6164C66.9112 19.2041 66.3327 19.5065 65.5621 19.5239C65.5388 19.5244 65.5153 19.5247 65.4915 19.5247C64.8578 19.5247 64.3338 19.3171 63.9196 18.9018C63.9137 18.8958 63.9076 18.8896 63.9017 18.8835C63.8394 18.8196 63.7795 18.7509 63.7224 18.6775C63.6164 18.538 63.5234 18.3846 63.4432 18.2171C63.1888 17.6873 63.0617 17.0171 63.0617 16.2065C63.0617 15.3774 63.1947 14.7 63.4606 14.1741C63.5369 14.0233 63.6243 13.8849 63.7224 13.759C63.7815 13.681 63.8433 13.6083 63.9079 13.5408C63.9137 13.5345 63.9199 13.5283 63.9258 13.5222C64.3389 13.0996 64.8607 12.8883 65.4915 12.8883C65.5153 12.8883 65.5388 12.8886 65.5621 12.8891C66.33 12.9063 66.9071 13.2067 67.2935 13.7901C67.2986 13.7979 67.3038 13.8057 67.3089 13.8137C67.3322 13.8499 67.355 13.8872 67.3769 13.9256C67.4085 13.9809 67.4387 14.0385 67.4674 14.0983C67.5123 14.1916 67.5533 14.2903 67.5908 14.3944H71.8839C71.8618 14.2936 71.838 14.1942 71.8125 14.0963C71.5436 13.0601 71.0964 12.1872 70.4708 11.4776C70.4381 11.4404 70.4048 11.4036 70.3709 11.3673C70.1626 11.1434 69.9357 10.9365 69.6901 10.7468C69.5665 10.6498 69.4394 10.5583 69.3086 10.4722C68.2767 9.79238 67.0278 9.45246 65.5621 9.45246C65.5386 9.45246 65.515 9.45253 65.4915 9.45273C64.2307 9.46262 63.1064 9.73706 62.1181 10.2761C61.6128 10.5563 61.1626 10.8977 60.7676 11.3003C60.7369 11.3317 60.7065 11.3634 60.6763 11.3955C60.6645 11.408 60.653 11.4205 60.6415 11.4331C60.4634 11.6266 60.297 11.8334 60.1427 12.0534ZM73.4371 14.4154C73.3053 14.9761 73.2396 15.5732 73.2396 16.2065C73.2396 16.8421 73.3027 17.4403 73.429 18.0011C73.4582 18.1316 73.4911 18.2601 73.5274 18.3866C73.6694 18.8835 73.8645 19.3492 74.1125 19.7835C74.2545 20.0262 74.4089 20.2555 74.5749 20.4715C74.7158 20.6545 74.8652 20.8279 75.0234 20.9918C75.087 21.0577 75.152 21.122 75.2182 21.1849C75.2327 21.1984 75.2469 21.2119 75.2614 21.2253C75.6431 21.5793 76.07 21.8832 76.542 22.1369C77.58 22.686 78.7436 22.9605 80.0331 22.9605C81.3228 22.9605 82.4865 22.686 83.5245 22.1369C83.9739 21.9025 84.3821 21.6253 84.7487 21.3052C84.7629 21.293 84.7769 21.2806 84.7906 21.2683C85.0698 21.0198 85.3247 20.7461 85.5548 20.4471C85.7155 20.2382 85.8642 20.0171 86.0011 19.7835C86.6144 18.7481 86.9211 17.5557 86.9211 16.2065C86.9211 14.8572 86.6223 13.6728 86.0247 12.653C85.8873 12.4147 85.7381 12.1892 85.5772 11.9767C85.3588 11.6882 85.1191 11.4235 84.8578 11.1825C84.8436 11.1695 84.8296 11.1565 84.8154 11.1437C84.4435 10.8073 84.0289 10.5181 83.5716 10.2761C82.5336 9.727 81.3699 9.45246 80.0805 9.45246C78.7908 9.45246 77.6271 9.727 76.5891 10.2761C76.1259 10.5212 75.7064 10.8148 75.3311 11.1568C75.3176 11.1689 75.3043 11.1811 75.2913 11.1933C75.2057 11.2727 75.1223 11.3547 75.0413 11.4392C74.8215 11.6686 74.6189 11.9168 74.4334 12.1838C74.3289 12.3342 74.2298 12.4906 74.136 12.653C73.8841 13.0831 73.6851 13.5424 73.5394 14.0311C73.5016 14.1572 73.4678 14.2853 73.4371 14.4154ZM77.7918 18.2024C77.8808 18.3579 77.9831 18.5006 78.0989 18.6304C78.1639 18.7012 78.2311 18.7676 78.3001 18.8295C78.3062 18.835 78.3124 18.8404 78.3182 18.8458C78.7962 19.267 79.3678 19.4776 80.0331 19.4776C80.7014 19.4776 81.2811 19.2652 81.772 18.8403C81.7779 18.8351 81.7841 18.8299 81.79 18.8246C81.8586 18.7641 81.9259 18.6994 81.9911 18.6304C82.1288 18.4891 82.2492 18.3326 82.3525 18.1609C82.6619 17.6461 82.8167 16.9947 82.8167 16.2065C82.8167 15.4107 82.6633 14.7542 82.3569 14.2372C82.2585 14.0713 82.1445 13.9198 82.0147 13.7826C81.9497 13.7117 81.8824 13.6454 81.8135 13.5834C81.3319 13.1514 80.7544 12.9354 80.0805 12.9354C79.4002 12.9354 78.82 13.1467 78.3398 13.5694C78.265 13.6353 78.1924 13.7064 78.1225 13.7826C77.9765 13.9371 77.8509 14.1122 77.7459 14.3078C77.478 14.8071 77.344 15.44 77.344 16.2065C77.344 17.016 77.4932 17.6813 77.7918 18.2024ZM80.0984 16.8573C80.1018 16.8573 80.1053 16.8571 80.1089 16.857C80.1239 16.8564 80.1408 16.8553 80.1592 16.8536C80.2574 16.8445 80.4006 16.8168 80.5655 16.7455C80.7546 16.6637 80.8938 16.5581 80.9821 16.4724C80.9904 16.4643 80.9983 16.4565 81.0056 16.4488C81.0105 16.4434 81.0154 16.4379 81.0201 16.4325C81.0854 16.3586 81.1384 16.2844 81.1803 16.2147C81.1786 16.212 81.1769 16.2092 81.1752 16.2065C81.1381 16.1482 81.0925 16.0864 81.0373 16.0246L80.0984 16.8573ZM80.0385 16.8565L80.997 15.9801C80.9212 15.8977 80.7735 15.7714 80.552 15.6745C80.3862 15.6017 80.237 15.5711 80.1278 15.5603C80.1111 15.5587 80.0952 15.5575 80.0805 15.5567C80.0785 15.5566 80.0768 15.5565 80.0748 15.5564C80.0704 15.5562 80.066 15.556 80.0616 15.5559C80.0515 15.5556 80.0422 15.5554 80.0331 15.5554C80.025 15.5554 80.0167 15.5555 80.0076 15.5558C79.8979 15.5592 79.7279 15.5845 79.5361 15.6675C79.3666 15.7409 79.2461 15.8307 79.1735 15.8975C79.1642 15.9059 79.1558 15.9139 79.1482 15.9215C79.1433 15.927 79.1384 15.9324 79.1335 15.9378C79.0734 16.0046 79.0226 16.0744 78.9811 16.1433C78.9701 16.1614 78.9603 16.1789 78.9512 16.1956C78.9532 16.1992 78.9551 16.2028 78.9573 16.2065C78.961 16.2132 78.9649 16.2199 78.9689 16.2268C79.0081 16.2941 79.0577 16.3641 79.1171 16.4324C79.1224 16.4384 79.1276 16.4443 79.133 16.4503C79.1406 16.4581 79.1487 16.4662 79.1575 16.4746C79.2405 16.5542 79.3749 16.6568 79.5614 16.7385C79.753 16.8224 79.922 16.8503 80.0331 16.8563C80.0351 16.8564 80.0368 16.8565 80.0385 16.8565ZM29.8357 9.64073H33.8692V22.7723H29.8357V9.64073ZM17.7215 9.47598V6.25194H4.91279V9.47598H9.30031V22.7723H13.334V9.47598H17.7215Z"
              fill="white"/>
    </g>
    <defs>
        <filter id="filter0_d_31_377" x="-1.01868" y="-6.10352e-05" width="93.8712" height="36.9543"
                filterUnits="userSpaceOnUse" color-interpolation-filters="sRGB">
            <feFlood flood-opacity="0" result="BackgroundImageFix"/>
            <feOffset dy="2"/>
            <feGaussianBlur stdDeviation="1"/>
            <feColorMatrix type="matrix" values="0 0 0 0 0 0 0 0 0 0 0 0 0 0 0 0 0 0 0.15 0"/>
            <feBlend mode="normal" in2="BackgroundImageFix" result="effect1_dropShadow_31_377"/>
            <feBlend mode="normal" in="SourceGraphic" in2="effect1_dropShadow_31_377" result="shape"/>
        </filter>
        <filter id="filter1_d_31_377" x="-5.08722" y="-4.07788" width="102.008" height="45.1099"
                filterUnits="userSpaceOnUse" color-interpolation-filters="sRGB">
            <feFlood flood-opacity="0" result="BackgroundImageFix"/>
            <feColorMatrix in="SourceAlpha" type="matrix" values="0 0 0 0 0 0 0 0 0 0 0 0 0 0 0 0 0 0 127 0"
                           result="hardAlpha"/>
            <feOffset dy="2"/>
            <feGaussianBlur stdDeviation="5"/>
            <feColorMatrix type="matrix" values="0 0 0 0 0 0 0 0 0 0 0 0 0 0 0 0 0 0 0.25 0"/>
            <feBlend mode="normal" in2="BackgroundImageFix" result="effect1_dropShadow_31_377"/>
            <feBlend mode="normal" in="SourceGraphic" in2="effect1_dropShadow_31_377" result="shape"/>
        </filter>
    </defs>
</svg>
